<svg height="70.495" viewBox="0 0 179.141 70.495" width="179.141" xmlns="http://www.w3.org/2000/svg" xmlns:xlink="http://www.w3.org/1999/xlink"><clipPath id="a"><path d="m0 0h179.141v70.495h-179.141z"/></clipPath><g clip-path="url(#a)"><path d="m392.585 107.547s11.437-7.034 12.383-14.762a10.112 10.112 0 0 0 -9.179-11.414 10.984 10.984 0 0 0 -11.748 9.577c-.946 7.728 8.544 16.6 8.544 16.6" fill="#fcc402" transform="translate(-230.874 -48.902)"/><path d="m394.86 81.33q.461 0 .929.041a10.112 10.112 0 0 1 9.179 11.414c-.946 7.727-12.383 14.762-12.383 14.762s-9.49-8.87-8.544-16.6a11 11 0 0 1 10.819-9.617" fill="#fcc402" transform="translate(-230.874 -48.902)"/><path d="m434.209 61.237s3.9-2.4 4.22-5.03a3.445 3.445 0 0 0 -3.128-3.889 3.742 3.742 0 0 0 -4 3.263c-.322 2.634 2.911 5.656 2.911 5.656" fill="#06397b" transform="translate(-259.315 -31.449)"/><path d="m268.543 49.858s21.75-13.378 23.549-28.075a19.23 19.23 0 0 0 -17.456-21.706 20.889 20.889 0 0 0 -22.343 18.214c-1.8 14.7 16.249 31.567 16.249 31.567" fill="#06397b" transform="translate(-151.622)"/><path d="m272.869 0c.585 0 1.175.026 1.766.077a19.231 19.231 0 0 1 17.456 21.707c-1.8 14.7-23.55 28.075-23.55 28.075s-18.048-16.87-16.249-31.567a20.924 20.924 0 0 1 20.577-18.292" fill="#2b43bb" transform="translate(-151.622)"/><path d="m332.864 53.274a12.862 12.862 0 0 1 12.65-11.244c.283 0 .568.018.852.037a23.759 23.759 0 0 0 -21.794-23.044 24.929 24.929 0 0 0 -4.158-.012 21.147 21.147 0 0 1 3.29 14.309c-.8 6.543-5.188 13.5-13.04 20.688a86.793 86.793 0 0 1 -8.862 7.067 89.081 89.081 0 0 0 15.223 19.6 99.154 99.154 0 0 0 19.286-16.136c-2.124-3.28-3.928-7.344-3.447-11.269" fill="#c0002d" transform="translate(-181.467 -11.383)"/><path d="m20.371 64.4-.326 1.832h9.437l-.653 3.689h-9.412l-.829 4.593h-4.266l1.933-11.043a3.32 3.32 0 0 1 1.1-1.958 2.9 2.9 0 0 1 1.958-.8h12.85l-.648 3.687z" fill="#c0002d" transform="translate(-8.611 -36.505)"/><path d="m70.779 60.712a1.992 1.992 0 0 1 1.669.8 2.406 2.406 0 0 1 .414 1.958l-.653 3.689a3.346 3.346 0 0 1 -1.092 1.958 2.848 2.848 0 0 1 -1.945.8h-1.029l2.785 4.593h-4.466l-2.786-4.593h-3.062l-.829 4.593h-4.266l2.434-13.8zm-2.685 5.522.326-1.834h-6.852l-.327 1.832z" fill="#c0002d" transform="translate(-33.382 -36.505)"/><path d="m97.537 74.516 2.434-13.8h4.267l-2.435 13.8z" fill="#c0002d" transform="translate(-58.647 -36.504)"/><path d="m118.806 64.4-.226 1.38h9.186l-.653 3.664h-9.186l-.251 1.38h11.124l-.628 3.689h-12.85a1.992 1.992 0 0 1 -1.67-.8 2.4 2.4 0 0 1 -.413-1.958l1.456-8.282a3.32 3.32 0 0 1 1.1-1.958 2.9 2.9 0 0 1 1.958-.8h12.847l-.65 3.685z" fill="#c0002d" transform="translate(-68.055 -36.505)"/><path d="m160.607 64.4-.251 1.38h11.144l-1.054 5.973a.206.206 0 0 1 -.012.063.2.2 0 0 0 -.013.063 3.412 3.412 0 0 1 -1.142 1.87 2.866 2.866 0 0 1 -1.9.766h-12.821l.653-3.689h11.118l.25-1.38h-11.143l1.054-5.973a.189.189 0 0 1 .013-.063.217.217 0 0 0 .012-.063 3.406 3.406 0 0 1 1.142-1.87 2.866 2.866 0 0 1 1.894-.766h12.849l-.65 3.689z" fill="#c0002d" transform="translate(-92.932 -36.505)"/><path d="m204.122 64.4-.226 1.38h9.186l-.653 3.664h-9.186l-.251 1.38h11.118l-.628 3.689h-12.85a1.992 1.992 0 0 1 -1.67-.8 2.4 2.4 0 0 1 -.413-1.958l1.456-8.282a3.32 3.32 0 0 1 1.1-1.958 2.894 2.894 0 0 1 1.958-.8h12.85l-.652 3.689z" fill="#c0002d" transform="translate(-119.354 -36.505)"/><g fill="#2b43bb"><path d="m22.425 101.446a1.991 1.991 0 0 1 1.669.8 2.4 2.4 0 0 1 .414 1.958l-.5 2.836a1.788 1.788 0 0 1 -.389.79 1.513 1.513 0 0 1 -.69.515.965.965 0 0 1 .514.514 1.246 1.246 0 0 1 .113.791l-.5 2.836a3.324 3.324 0 0 1 -1.1 1.958 2.9 2.9 0 0 1 -1.958.8h-12.833l2.435-13.8zm-3.489 10.114.252-1.38h-6.853l-.251 1.38zm.878-5.045.252-1.38h-6.852l-.226 1.38z" transform="translate(-4.308 -60.997)"/><path d="m65.147 101.446a1.99 1.99 0 0 1 1.669.8 2.4 2.4 0 0 1 .414 1.958l-1.93 11.046h-4.294l.8-4.593h-6.848l-.8 4.593h-4.27l1.932-11.043a3.318 3.318 0 0 1 1.1-1.958 2.9 2.9 0 0 1 1.958-.8zm-2.685 5.522.326-1.832h-6.851l-.327 1.832z" transform="translate(-29.996 -60.997)"/><path d="m109.6 111.56-.628 3.689h-12.851a1.991 1.991 0 0 1 -1.669-.8 2.4 2.4 0 0 1 -.413-1.958l1.957-11.043h4.267l-1.783 10.112z" transform="translate(-56.513 -60.997)"/><path d="m150.135 111.56-.628 3.689h-12.85a1.991 1.991 0 0 1 -1.669-.8 2.4 2.4 0 0 1 -.413-1.958l1.957-11.043h4.268l-1.782 10.114z" transform="translate(-80.886 -60.997)"/><path d="m189.893 101.446a1.993 1.993 0 0 1 1.67.8 2.406 2.406 0 0 1 .413 1.958l-1.456 8.282a3.316 3.316 0 0 1 -1.1 1.958 2.893 2.893 0 0 1 -1.958.8h-10.269a1.99 1.99 0 0 1 -1.669-.8 2.4 2.4 0 0 1 -.414-1.958l1.455-8.282a3.321 3.321 0 0 1 1.1-1.958 2.9 2.9 0 0 1 1.958-.8zm-3.493 10.114 1.129-6.425h-6.852l-1.129 6.425z" transform="translate(-105.26 -60.997)"/><path d="m234.637 101.446-1.958 11.043a3.314 3.314 0 0 1 -1.1 1.958 2.891 2.891 0 0 1 -1.958.8h-2.183l-4.87-8.558-1.506 8.558h-4.267l1.932-11.043a3.324 3.324 0 0 1 1.1-1.958 2.9 2.9 0 0 1 1.958-.8h2.184l4.87 8.554 1.506-8.558z" transform="translate(-130.352 -60.997)"/><path d="m6.049 145.87-.327 1.83h9.438l-.653 3.689h-9.407l-.829 4.593h-4.271l1.933-11.043a3.32 3.32 0 0 1 1.1-1.958 2.894 2.894 0 0 1 1.958-.8h12.85l-.652 3.689z" transform="translate(0 -85.49)"/><path d="m47.7 145.87-.226 1.38h9.185l-.653 3.664h-9.182l-.251 1.38h11.119l-.628 3.689h-12.85a1.99 1.99 0 0 1 -1.669-.8 2.4 2.4 0 0 1 -.414-1.958l1.456-8.282a3.324 3.324 0 0 1 1.1-1.958 2.9 2.9 0 0 1 1.958-.8h12.855l-.653 3.689z" transform="translate(-25.302 -85.49)"/><path d="m89.925 145.87-.226 1.38h9.186l-.653 3.664h-9.185l-.247 1.386h11.114l-.628 3.689h-12.849a1.992 1.992 0 0 1 -1.67-.8 2.4 2.4 0 0 1 -.413-1.958l1.456-8.282a3.32 3.32 0 0 1 1.1-1.958 2.894 2.894 0 0 1 1.958-.8h12.85l-.652 3.689z" transform="translate(-50.69 -85.49)"/><path d="m131.725 145.87-.251 1.38h11.143l-1.053 5.973a.234.234 0 0 1 -.012.063.2.2 0 0 0 -.014.063 3.412 3.412 0 0 1 -1.142 1.87 2.864 2.864 0 0 1 -1.895.766h-12.825l.653-3.689h11.118l.251-1.38h-11.144l1.055-5.973a.2.2 0 0 1 .012-.063.2.2 0 0 0 .012-.063 3.413 3.413 0 0 1 1.142-1.87 2.866 2.866 0 0 1 1.895-.766h12.85l-.652 3.689z" transform="translate(-75.566 -85.49)"/><path d="m186.922 142.181-.653 3.689h-5.569l-1.782 10.114h-4.292l1.807-10.114h-5.572l.653-3.689z" transform="translate(-102.734 -85.49)"/><path d="m213.48 145.87-.226 1.38h9.186l-.653 3.664h-9.187l-.251 1.38h11.118l-.628 3.689h-12.85a1.992 1.992 0 0 1 -1.67-.8 2.4 2.4 0 0 1 -.413-1.958l1.456-8.282a3.32 3.32 0 0 1 1.1-1.958 2.894 2.894 0 0 1 1.958-.8h12.85l-.652 3.689z" transform="translate(-124.98 -85.49)"/><path d="m267.077 142.181-1.958 11.043a3.314 3.314 0 0 1 -1.1 1.958 2.891 2.891 0 0 1 -1.958.8h-2.183l-4.878-8.555-1.506 8.558h-4.267l1.932-11.043a3.324 3.324 0 0 1 1.1-1.958 2.9 2.9 0 0 1 1.958-.8h2.184l4.869 8.558 1.506-8.558z" transform="translate(-149.857 -85.49)"/></g></g></svg>